<mxfile host="app.diagrams.net" modified="2022-01-14T07:07:39.496Z" agent="5.0 (Windows NT 10.0; Win64; x64) AppleWebKit/537.36 (KHTML, like Gecko) Chrome/97.0.4692.71 Safari/537.36" etag="lwrgX2muaIcLHLcDmGfl" version="16.2.6" type="github">
  <diagram id="YQtj8p7_zJ94gRBWya1z" name="第 1 页">
    <mxGraphModel dx="2062" dy="1113" grid="1" gridSize="10" guides="1" tooltips="1" connect="1" arrows="1" fold="1" page="1" pageScale="1" pageWidth="827" pageHeight="1169" math="0" shadow="0">
      <root>
        <mxCell id="0" />
        <mxCell id="1" parent="0" />
        <mxCell id="WZXScTK4JVefNiXDI52w-36" value="" style="edgeStyle=orthogonalEdgeStyle;rounded=0;orthogonalLoop=1;jettySize=auto;html=1;" edge="1" parent="1" source="WZXScTK4JVefNiXDI52w-2" target="WZXScTK4JVefNiXDI52w-1">
          <mxGeometry relative="1" as="geometry" />
        </mxCell>
        <mxCell id="WZXScTK4JVefNiXDI52w-2" value="当前Hash桶table[]" style="text;strokeColor=none;fillColor=none;html=1;fontSize=24;fontStyle=1;verticalAlign=middle;align=center;" vertex="1" parent="1">
          <mxGeometry x="380" y="40" width="100" height="40" as="geometry" />
        </mxCell>
        <mxCell id="WZXScTK4JVefNiXDI52w-12" value="" style="group" vertex="1" connectable="0" parent="1">
          <mxGeometry x="49" y="80" width="730" height="120" as="geometry" />
        </mxCell>
        <mxCell id="WZXScTK4JVefNiXDI52w-1" value="" style="rounded=0;whiteSpace=wrap;html=1;" vertex="1" parent="WZXScTK4JVefNiXDI52w-12">
          <mxGeometry width="730" height="80" as="geometry" />
        </mxCell>
        <mxCell id="WZXScTK4JVefNiXDI52w-3" value="" style="ellipse;shape=doubleEllipse;whiteSpace=wrap;html=1;aspect=fixed;fillColor=#003333;" vertex="1" parent="WZXScTK4JVefNiXDI52w-12">
          <mxGeometry x="30" y="20" width="40" height="40" as="geometry" />
        </mxCell>
        <mxCell id="WZXScTK4JVefNiXDI52w-4" value="" style="ellipse;shape=doubleEllipse;whiteSpace=wrap;html=1;aspect=fixed;fillColor=#003333;" vertex="1" parent="WZXScTK4JVefNiXDI52w-12">
          <mxGeometry x="109" y="20" width="40" height="40" as="geometry" />
        </mxCell>
        <mxCell id="WZXScTK4JVefNiXDI52w-5" value="" style="ellipse;shape=doubleEllipse;whiteSpace=wrap;html=1;aspect=fixed;fillColor=#003333;" vertex="1" parent="WZXScTK4JVefNiXDI52w-12">
          <mxGeometry x="188" y="20" width="40" height="40" as="geometry" />
        </mxCell>
        <mxCell id="WZXScTK4JVefNiXDI52w-6" value="" style="ellipse;shape=doubleEllipse;whiteSpace=wrap;html=1;aspect=fixed;fillColor=#003333;" vertex="1" parent="WZXScTK4JVefNiXDI52w-12">
          <mxGeometry x="266" y="20" width="40" height="40" as="geometry" />
        </mxCell>
        <mxCell id="WZXScTK4JVefNiXDI52w-7" value="" style="ellipse;shape=doubleEllipse;whiteSpace=wrap;html=1;aspect=fixed;fillColor=#003333;" vertex="1" parent="WZXScTK4JVefNiXDI52w-12">
          <mxGeometry x="345" y="20" width="40" height="40" as="geometry" />
        </mxCell>
        <mxCell id="WZXScTK4JVefNiXDI52w-8" value="" style="ellipse;shape=doubleEllipse;whiteSpace=wrap;html=1;aspect=fixed;fillColor=#003333;" vertex="1" parent="WZXScTK4JVefNiXDI52w-12">
          <mxGeometry x="424" y="20" width="40" height="40" as="geometry" />
        </mxCell>
        <mxCell id="WZXScTK4JVefNiXDI52w-9" value="" style="ellipse;shape=doubleEllipse;whiteSpace=wrap;html=1;aspect=fixed;fillColor=#003333;" vertex="1" parent="WZXScTK4JVefNiXDI52w-12">
          <mxGeometry x="503" y="20" width="40" height="40" as="geometry" />
        </mxCell>
        <mxCell id="WZXScTK4JVefNiXDI52w-10" value="" style="ellipse;shape=doubleEllipse;whiteSpace=wrap;html=1;aspect=fixed;fillColor=#003333;" vertex="1" parent="WZXScTK4JVefNiXDI52w-12">
          <mxGeometry x="581" y="20" width="40" height="40" as="geometry" />
        </mxCell>
        <mxCell id="WZXScTK4JVefNiXDI52w-11" value="" style="ellipse;shape=doubleEllipse;whiteSpace=wrap;html=1;aspect=fixed;fillColor=#003333;" vertex="1" parent="WZXScTK4JVefNiXDI52w-12">
          <mxGeometry x="660" y="20" width="40" height="40" as="geometry" />
        </mxCell>
        <mxCell id="WZXScTK4JVefNiXDI52w-115" value="first" style="text;strokeColor=none;fillColor=none;html=1;fontSize=24;fontStyle=1;verticalAlign=middle;align=center;fontFamily=Courier New;fontColor=#FF0000;" vertex="1" parent="WZXScTK4JVefNiXDI52w-12">
          <mxGeometry x="396" y="80" width="100" height="40" as="geometry" />
        </mxCell>
        <mxCell id="WZXScTK4JVefNiXDI52w-29" value="" style="endArrow=none;dashed=1;html=1;rounded=0;" edge="1" parent="1">
          <mxGeometry width="50" height="50" relative="1" as="geometry">
            <mxPoint y="440" as="sourcePoint" />
            <mxPoint x="830" y="440" as="targetPoint" />
          </mxGeometry>
        </mxCell>
        <mxCell id="WZXScTK4JVefNiXDI52w-39" value="现在需要将root移动到first的位置" style="text;strokeColor=none;fillColor=none;html=1;fontSize=24;fontStyle=1;verticalAlign=middle;align=center;" vertex="1" parent="1">
          <mxGeometry x="110" y="400" width="610" height="30" as="geometry" />
        </mxCell>
        <mxCell id="WZXScTK4JVefNiXDI52w-44" value="" style="group" vertex="1" connectable="0" parent="1">
          <mxGeometry x="49" y="490" width="730" height="120" as="geometry" />
        </mxCell>
        <mxCell id="WZXScTK4JVefNiXDI52w-45" value="" style="rounded=0;whiteSpace=wrap;html=1;" vertex="1" parent="WZXScTK4JVefNiXDI52w-44">
          <mxGeometry width="730" height="80" as="geometry" />
        </mxCell>
        <mxCell id="WZXScTK4JVefNiXDI52w-46" value="" style="ellipse;shape=doubleEllipse;whiteSpace=wrap;html=1;aspect=fixed;fillColor=#003333;" vertex="1" parent="WZXScTK4JVefNiXDI52w-44">
          <mxGeometry x="30" y="20" width="40" height="40" as="geometry" />
        </mxCell>
        <mxCell id="WZXScTK4JVefNiXDI52w-47" value="" style="ellipse;shape=doubleEllipse;whiteSpace=wrap;html=1;aspect=fixed;fillColor=#003333;" vertex="1" parent="WZXScTK4JVefNiXDI52w-44">
          <mxGeometry x="109" y="20" width="40" height="40" as="geometry" />
        </mxCell>
        <mxCell id="WZXScTK4JVefNiXDI52w-48" value="" style="ellipse;shape=doubleEllipse;whiteSpace=wrap;html=1;aspect=fixed;fillColor=#003333;" vertex="1" parent="WZXScTK4JVefNiXDI52w-44">
          <mxGeometry x="188" y="20" width="40" height="40" as="geometry" />
        </mxCell>
        <mxCell id="WZXScTK4JVefNiXDI52w-49" value="" style="ellipse;shape=doubleEllipse;whiteSpace=wrap;html=1;aspect=fixed;fillColor=#003333;" vertex="1" parent="WZXScTK4JVefNiXDI52w-44">
          <mxGeometry x="266" y="20" width="40" height="40" as="geometry" />
        </mxCell>
        <mxCell id="WZXScTK4JVefNiXDI52w-50" value="" style="ellipse;shape=doubleEllipse;whiteSpace=wrap;html=1;aspect=fixed;fillColor=#003333;" vertex="1" parent="WZXScTK4JVefNiXDI52w-44">
          <mxGeometry x="345" y="20" width="40" height="40" as="geometry" />
        </mxCell>
        <mxCell id="WZXScTK4JVefNiXDI52w-51" value="" style="ellipse;shape=doubleEllipse;whiteSpace=wrap;html=1;aspect=fixed;fillColor=#003333;" vertex="1" parent="WZXScTK4JVefNiXDI52w-44">
          <mxGeometry x="424" y="20" width="40" height="40" as="geometry" />
        </mxCell>
        <mxCell id="WZXScTK4JVefNiXDI52w-52" value="" style="ellipse;shape=doubleEllipse;whiteSpace=wrap;html=1;aspect=fixed;fillColor=#003333;" vertex="1" parent="WZXScTK4JVefNiXDI52w-44">
          <mxGeometry x="503" y="20" width="40" height="40" as="geometry" />
        </mxCell>
        <mxCell id="WZXScTK4JVefNiXDI52w-53" value="" style="ellipse;shape=doubleEllipse;whiteSpace=wrap;html=1;aspect=fixed;fillColor=#003333;" vertex="1" parent="WZXScTK4JVefNiXDI52w-44">
          <mxGeometry x="581" y="20" width="40" height="40" as="geometry" />
        </mxCell>
        <mxCell id="WZXScTK4JVefNiXDI52w-54" value="" style="ellipse;shape=doubleEllipse;whiteSpace=wrap;html=1;aspect=fixed;fillColor=#003333;" vertex="1" parent="WZXScTK4JVefNiXDI52w-44">
          <mxGeometry x="660" y="20" width="40" height="40" as="geometry" />
        </mxCell>
        <mxCell id="WZXScTK4JVefNiXDI52w-119" value="" style="edgeStyle=orthogonalEdgeStyle;rounded=0;orthogonalLoop=1;jettySize=auto;html=1;fontFamily=Courier New;fontSize=22;fontColor=#003300;strokeColor=#003300;" edge="1" parent="1" source="WZXScTK4JVefNiXDI52w-57" target="WZXScTK4JVefNiXDI52w-118">
          <mxGeometry relative="1" as="geometry" />
        </mxCell>
        <mxCell id="WZXScTK4JVefNiXDI52w-121" value="" style="edgeStyle=orthogonalEdgeStyle;rounded=0;orthogonalLoop=1;jettySize=auto;html=1;fontFamily=Courier New;fontSize=22;fontColor=#003300;strokeColor=#003300;" edge="1" parent="1" source="WZXScTK4JVefNiXDI52w-57" target="WZXScTK4JVefNiXDI52w-120">
          <mxGeometry relative="1" as="geometry" />
        </mxCell>
        <mxCell id="WZXScTK4JVefNiXDI52w-57" value="2" style="ellipse;shape=doubleEllipse;whiteSpace=wrap;html=1;aspect=fixed;fillColor=#003300;strokeColor=#003300;fontColor=#ffffff;fontFamily=Courier New;fontSize=22;fontStyle=1" vertex="1" parent="1">
          <mxGeometry x="395" y="600" width="40" height="40" as="geometry" />
        </mxCell>
        <mxCell id="WZXScTK4JVefNiXDI52w-63" value="" style="edgeStyle=orthogonalEdgeStyle;rounded=0;orthogonalLoop=1;jettySize=auto;html=1;" edge="1" parent="1" source="WZXScTK4JVefNiXDI52w-65" target="WZXScTK4JVefNiXDI52w-68">
          <mxGeometry relative="1" as="geometry" />
        </mxCell>
        <mxCell id="WZXScTK4JVefNiXDI52w-64" value="" style="edgeStyle=orthogonalEdgeStyle;rounded=0;orthogonalLoop=1;jettySize=auto;html=1;" edge="1" parent="1" source="WZXScTK4JVefNiXDI52w-65" target="WZXScTK4JVefNiXDI52w-71">
          <mxGeometry relative="1" as="geometry" />
        </mxCell>
        <object label="4" id="WZXScTK4JVefNiXDI52w-65">
          <mxCell style="ellipse;shape=doubleEllipse;whiteSpace=wrap;html=1;aspect=fixed;fillColor=#003333;fontColor=#FFFFFF;fontSize=22;fontStyle=1;fontFamily=Courier New;" vertex="1" parent="1">
            <mxGeometry x="395" y="180" width="40" height="40" as="geometry" />
          </mxCell>
        </object>
        <mxCell id="WZXScTK4JVefNiXDI52w-66" value="" style="edgeStyle=orthogonalEdgeStyle;rounded=0;orthogonalLoop=1;jettySize=auto;html=1;" edge="1" parent="1" source="WZXScTK4JVefNiXDI52w-68" target="WZXScTK4JVefNiXDI52w-72">
          <mxGeometry relative="1" as="geometry" />
        </mxCell>
        <mxCell id="WZXScTK4JVefNiXDI52w-67" value="" style="edgeStyle=orthogonalEdgeStyle;rounded=0;orthogonalLoop=1;jettySize=auto;html=1;" edge="1" parent="1" source="WZXScTK4JVefNiXDI52w-68" target="WZXScTK4JVefNiXDI52w-73">
          <mxGeometry relative="1" as="geometry" />
        </mxCell>
        <mxCell id="WZXScTK4JVefNiXDI52w-68" value="2" style="ellipse;shape=doubleEllipse;whiteSpace=wrap;html=1;aspect=fixed;fillColor=#e51400;strokeColor=#B20000;fontColor=#ffffff;fontSize=22;fontStyle=1;fontFamily=Courier New;" vertex="1" parent="1">
          <mxGeometry x="240" y="230" width="40" height="40" as="geometry" />
        </mxCell>
        <mxCell id="WZXScTK4JVefNiXDI52w-69" value="" style="edgeStyle=orthogonalEdgeStyle;rounded=0;orthogonalLoop=1;jettySize=auto;html=1;" edge="1" parent="1" source="WZXScTK4JVefNiXDI52w-71" target="WZXScTK4JVefNiXDI52w-74">
          <mxGeometry relative="1" as="geometry" />
        </mxCell>
        <mxCell id="WZXScTK4JVefNiXDI52w-70" value="" style="edgeStyle=orthogonalEdgeStyle;rounded=0;orthogonalLoop=1;jettySize=auto;html=1;" edge="1" parent="1" source="WZXScTK4JVefNiXDI52w-71" target="WZXScTK4JVefNiXDI52w-75">
          <mxGeometry relative="1" as="geometry" />
        </mxCell>
        <object label="6" id="WZXScTK4JVefNiXDI52w-71">
          <mxCell style="ellipse;shape=doubleEllipse;whiteSpace=wrap;html=1;aspect=fixed;fillColor=#e51400;fontColor=#ffffff;strokeColor=#B20000;fontFamily=Courier New;fontSize=22;fontStyle=1" vertex="1" parent="1">
            <mxGeometry x="530" y="230" width="40" height="40" as="geometry" />
          </mxCell>
        </object>
        <object label="1" id="WZXScTK4JVefNiXDI52w-72">
          <mxCell style="ellipse;shape=doubleEllipse;whiteSpace=wrap;html=1;aspect=fixed;fillColor=#003333;fontFamily=Courier New;fontColor=#FFFFFF;fontStyle=1;fontSize=22;" vertex="1" parent="1">
            <mxGeometry x="190" y="275" width="40" height="40" as="geometry" />
          </mxCell>
        </object>
        <object label="3" id="WZXScTK4JVefNiXDI52w-73">
          <mxCell style="ellipse;shape=doubleEllipse;whiteSpace=wrap;html=1;aspect=fixed;fillColor=#003333;fontColor=#FFFFFF;fontSize=22;fontFamily=Courier New;fontStyle=1" vertex="1" parent="1">
            <mxGeometry x="290" y="275" width="40" height="40" as="geometry" />
          </mxCell>
        </object>
        <object label="5" id="WZXScTK4JVefNiXDI52w-74">
          <mxCell style="ellipse;shape=doubleEllipse;whiteSpace=wrap;html=1;aspect=fixed;fillColor=#003333;fontFamily=Courier New;fontSize=22;fontColor=#FFFFFF;fontStyle=1" vertex="1" parent="1">
            <mxGeometry x="460" y="275" width="40" height="40" as="geometry" />
          </mxCell>
        </object>
        <object label="7" id="WZXScTK4JVefNiXDI52w-75">
          <mxCell style="ellipse;shape=doubleEllipse;whiteSpace=wrap;html=1;aspect=fixed;fillColor=#003333;fontColor=#FFFFFF;fontFamily=Courier New;fontSize=22;fontStyle=1" vertex="1" parent="1">
            <mxGeometry x="580" y="275" width="40" height="40" as="geometry" />
          </mxCell>
        </object>
        <mxCell id="WZXScTK4JVefNiXDI52w-116" value="root" style="text;strokeColor=none;fillColor=none;html=1;fontSize=24;fontStyle=1;verticalAlign=middle;align=center;fontFamily=Courier New;fontColor=#FF0000;" vertex="1" parent="1">
          <mxGeometry x="140" y="200" width="100" height="40" as="geometry" />
        </mxCell>
        <mxCell id="WZXScTK4JVefNiXDI52w-118" value="1" style="ellipse;shape=doubleEllipse;whiteSpace=wrap;html=1;aspect=fixed;fillColor=#003300;strokeColor=#003300;fontColor=#ffffff;fontFamily=Courier New;fontSize=22;fontStyle=1" vertex="1" parent="1">
          <mxGeometry x="310" y="670" width="40" height="40" as="geometry" />
        </mxCell>
        <mxCell id="WZXScTK4JVefNiXDI52w-124" value="" style="edgeStyle=orthogonalEdgeStyle;rounded=0;orthogonalLoop=1;jettySize=auto;html=1;fontFamily=Courier New;fontSize=22;fontColor=#003300;strokeColor=#003300;" edge="1" parent="1" source="WZXScTK4JVefNiXDI52w-120" target="WZXScTK4JVefNiXDI52w-123">
          <mxGeometry relative="1" as="geometry" />
        </mxCell>
        <mxCell id="WZXScTK4JVefNiXDI52w-126" value="" style="edgeStyle=orthogonalEdgeStyle;rounded=0;orthogonalLoop=1;jettySize=auto;html=1;fontFamily=Courier New;fontSize=22;fontColor=#003300;strokeColor=#003300;" edge="1" parent="1" source="WZXScTK4JVefNiXDI52w-120" target="WZXScTK4JVefNiXDI52w-125">
          <mxGeometry relative="1" as="geometry" />
        </mxCell>
        <mxCell id="WZXScTK4JVefNiXDI52w-120" value="3" style="ellipse;shape=doubleEllipse;whiteSpace=wrap;html=1;aspect=fixed;fillColor=#FF0000;strokeColor=#FF3333;fontColor=#ffffff;fontFamily=Courier New;fontSize=22;fontStyle=1" vertex="1" parent="1">
          <mxGeometry x="440" y="670" width="40" height="40" as="geometry" />
        </mxCell>
        <mxCell id="WZXScTK4JVefNiXDI52w-123" value="4" style="ellipse;shape=doubleEllipse;whiteSpace=wrap;html=1;aspect=fixed;fillColor=#003300;strokeColor=#003300;fontColor=#ffffff;fontFamily=Courier New;fontSize=22;fontStyle=1" vertex="1" parent="1">
          <mxGeometry x="370" y="740" width="40" height="40" as="geometry" />
        </mxCell>
        <mxCell id="WZXScTK4JVefNiXDI52w-125" value="5" style="ellipse;shape=doubleEllipse;whiteSpace=wrap;html=1;aspect=fixed;fillColor=#003300;strokeColor=#003300;fontColor=#ffffff;fontFamily=Courier New;fontSize=22;fontStyle=1" vertex="1" parent="1">
          <mxGeometry x="490" y="740" width="40" height="40" as="geometry" />
        </mxCell>
        <mxCell id="WZXScTK4JVefNiXDI52w-127" value="" style="group" vertex="1" connectable="0" parent="1">
          <mxGeometry x="30" y="820" width="730" height="140" as="geometry" />
        </mxCell>
        <mxCell id="WZXScTK4JVefNiXDI52w-128" value="" style="rounded=0;whiteSpace=wrap;html=1;" vertex="1" parent="WZXScTK4JVefNiXDI52w-127">
          <mxGeometry width="730" height="80" as="geometry" />
        </mxCell>
        <mxCell id="WZXScTK4JVefNiXDI52w-129" value="" style="ellipse;shape=doubleEllipse;whiteSpace=wrap;html=1;aspect=fixed;fillColor=#003333;" vertex="1" parent="WZXScTK4JVefNiXDI52w-127">
          <mxGeometry x="30" y="20" width="40" height="40" as="geometry" />
        </mxCell>
        <mxCell id="WZXScTK4JVefNiXDI52w-130" value="" style="ellipse;shape=doubleEllipse;whiteSpace=wrap;html=1;aspect=fixed;fillColor=#003333;" vertex="1" parent="WZXScTK4JVefNiXDI52w-127">
          <mxGeometry x="109" y="20" width="40" height="40" as="geometry" />
        </mxCell>
        <mxCell id="WZXScTK4JVefNiXDI52w-131" value="" style="ellipse;shape=doubleEllipse;whiteSpace=wrap;html=1;aspect=fixed;fillColor=#003333;" vertex="1" parent="WZXScTK4JVefNiXDI52w-127">
          <mxGeometry x="188" y="20" width="40" height="40" as="geometry" />
        </mxCell>
        <mxCell id="WZXScTK4JVefNiXDI52w-132" value="" style="ellipse;shape=doubleEllipse;whiteSpace=wrap;html=1;aspect=fixed;fillColor=#003333;" vertex="1" parent="WZXScTK4JVefNiXDI52w-127">
          <mxGeometry x="266" y="20" width="40" height="40" as="geometry" />
        </mxCell>
        <mxCell id="WZXScTK4JVefNiXDI52w-133" value="" style="ellipse;shape=doubleEllipse;whiteSpace=wrap;html=1;aspect=fixed;fillColor=#003333;" vertex="1" parent="WZXScTK4JVefNiXDI52w-127">
          <mxGeometry x="345" y="20" width="40" height="40" as="geometry" />
        </mxCell>
        <mxCell id="WZXScTK4JVefNiXDI52w-134" value="" style="ellipse;shape=doubleEllipse;whiteSpace=wrap;html=1;aspect=fixed;fillColor=#003333;" vertex="1" parent="WZXScTK4JVefNiXDI52w-127">
          <mxGeometry x="424" y="20" width="40" height="40" as="geometry" />
        </mxCell>
        <mxCell id="WZXScTK4JVefNiXDI52w-135" value="" style="ellipse;shape=doubleEllipse;whiteSpace=wrap;html=1;aspect=fixed;fillColor=#003333;" vertex="1" parent="WZXScTK4JVefNiXDI52w-127">
          <mxGeometry x="503" y="20" width="40" height="40" as="geometry" />
        </mxCell>
        <mxCell id="WZXScTK4JVefNiXDI52w-136" value="" style="ellipse;shape=doubleEllipse;whiteSpace=wrap;html=1;aspect=fixed;fillColor=#003333;" vertex="1" parent="WZXScTK4JVefNiXDI52w-127">
          <mxGeometry x="581" y="20" width="40" height="40" as="geometry" />
        </mxCell>
        <mxCell id="WZXScTK4JVefNiXDI52w-137" value="" style="ellipse;shape=doubleEllipse;whiteSpace=wrap;html=1;aspect=fixed;fillColor=#003333;" vertex="1" parent="WZXScTK4JVefNiXDI52w-127">
          <mxGeometry x="660" y="20" width="40" height="40" as="geometry" />
        </mxCell>
        <mxCell id="WZXScTK4JVefNiXDI52w-147" value="Title" style="text;strokeColor=none;fillColor=none;html=1;fontSize=24;fontStyle=1;verticalAlign=middle;align=center;fontFamily=Courier New;fontColor=#003300;" vertex="1" parent="1">
          <mxGeometry x="620" y="960" width="270" height="40" as="geometry" />
        </mxCell>
        <mxCell id="WZXScTK4JVefNiXDI52w-156" value="" style="edgeStyle=orthogonalEdgeStyle;rounded=0;orthogonalLoop=1;jettySize=auto;html=1;fontFamily=Courier New;fontSize=22;fontColor=#003300;strokeColor=#003300;" edge="1" parent="1" source="WZXScTK4JVefNiXDI52w-151" target="WZXScTK4JVefNiXDI52w-155">
          <mxGeometry relative="1" as="geometry" />
        </mxCell>
        <mxCell id="WZXScTK4JVefNiXDI52w-151" value="4" style="ellipse;shape=doubleEllipse;whiteSpace=wrap;html=1;aspect=fixed;fillColor=#003300;strokeColor=#003300;fontColor=#ffffff;fontFamily=Courier New;fontSize=22;fontStyle=1" vertex="1" parent="1">
          <mxGeometry x="660" y="1010" width="40" height="40" as="geometry" />
        </mxCell>
        <mxCell id="WZXScTK4JVefNiXDI52w-155" value="5" style="ellipse;shape=doubleEllipse;whiteSpace=wrap;html=1;aspect=fixed;fillColor=#003300;strokeColor=#003300;fontColor=#ffffff;fontFamily=Courier New;fontSize=22;fontStyle=1" vertex="1" parent="1">
          <mxGeometry x="710" y="1070" width="40" height="40" as="geometry" />
        </mxCell>
        <mxCell id="WZXScTK4JVefNiXDI52w-157" value="" style="edgeStyle=orthogonalEdgeStyle;rounded=0;orthogonalLoop=1;jettySize=auto;html=1;fontFamily=Courier New;fontSize=22;fontColor=#003300;strokeColor=#003300;" edge="1" parent="1" source="WZXScTK4JVefNiXDI52w-159" target="WZXScTK4JVefNiXDI52w-160">
          <mxGeometry relative="1" as="geometry" />
        </mxCell>
        <mxCell id="WZXScTK4JVefNiXDI52w-158" value="" style="edgeStyle=orthogonalEdgeStyle;rounded=0;orthogonalLoop=1;jettySize=auto;html=1;fontFamily=Courier New;fontSize=22;fontColor=#003300;strokeColor=#003300;" edge="1" parent="1" source="WZXScTK4JVefNiXDI52w-159" target="WZXScTK4JVefNiXDI52w-163">
          <mxGeometry relative="1" as="geometry" />
        </mxCell>
        <mxCell id="WZXScTK4JVefNiXDI52w-159" value="3" style="ellipse;shape=doubleEllipse;whiteSpace=wrap;html=1;aspect=fixed;fillColor=#003300;strokeColor=#003300;fontColor=#ffffff;fontFamily=Courier New;fontSize=22;fontStyle=1" vertex="1" parent="1">
          <mxGeometry x="355" y="940" width="40" height="40" as="geometry" />
        </mxCell>
        <mxCell id="WZXScTK4JVefNiXDI52w-170" style="edgeStyle=orthogonalEdgeStyle;rounded=0;orthogonalLoop=1;jettySize=auto;html=1;exitX=1;exitY=0.5;exitDx=0;exitDy=0;entryX=0.5;entryY=0;entryDx=0;entryDy=0;fontFamily=Courier New;fontSize=22;fontColor=#003300;strokeColor=#003300;" edge="1" parent="1" source="WZXScTK4JVefNiXDI52w-160" target="WZXScTK4JVefNiXDI52w-169">
          <mxGeometry relative="1" as="geometry" />
        </mxCell>
        <mxCell id="WZXScTK4JVefNiXDI52w-160" value="4" style="ellipse;shape=doubleEllipse;whiteSpace=wrap;html=1;aspect=fixed;fillColor=#003300;strokeColor=#003300;fontColor=#ffffff;fontFamily=Courier New;fontSize=22;fontStyle=1" vertex="1" parent="1">
          <mxGeometry x="270" y="1010" width="40" height="40" as="geometry" />
        </mxCell>
        <mxCell id="WZXScTK4JVefNiXDI52w-172" value="" style="edgeStyle=orthogonalEdgeStyle;rounded=0;orthogonalLoop=1;jettySize=auto;html=1;fontFamily=Courier New;fontSize=22;fontColor=#003300;strokeColor=#003300;" edge="1" parent="1" source="WZXScTK4JVefNiXDI52w-163" target="WZXScTK4JVefNiXDI52w-171">
          <mxGeometry relative="1" as="geometry" />
        </mxCell>
        <mxCell id="WZXScTK4JVefNiXDI52w-163" value="2" style="ellipse;shape=doubleEllipse;whiteSpace=wrap;html=1;aspect=fixed;fillColor=#FF0000;strokeColor=#FF3333;fontColor=#ffffff;fontFamily=Courier New;fontSize=22;fontStyle=1" vertex="1" parent="1">
          <mxGeometry x="440" y="1010" width="40" height="40" as="geometry" />
        </mxCell>
        <mxCell id="WZXScTK4JVefNiXDI52w-167" value="rp" style="text;strokeColor=none;fillColor=none;html=1;fontSize=24;fontStyle=1;verticalAlign=middle;align=center;fontFamily=Courier New;fontColor=#003300;" vertex="1" parent="1">
          <mxGeometry x="160" y="1010" width="100" height="40" as="geometry" />
        </mxCell>
        <mxCell id="WZXScTK4JVefNiXDI52w-168" value="rn" style="text;strokeColor=none;fillColor=none;html=1;fontSize=24;fontStyle=1;verticalAlign=middle;align=center;fontFamily=Courier New;fontColor=#003300;" vertex="1" parent="1">
          <mxGeometry x="500" y="1010" width="100" height="40" as="geometry" />
        </mxCell>
        <mxCell id="WZXScTK4JVefNiXDI52w-169" value="5" style="ellipse;shape=doubleEllipse;whiteSpace=wrap;html=1;aspect=fixed;fillColor=#FF0000;strokeColor=#FF3333;fontColor=#ffffff;fontFamily=Courier New;fontSize=22;fontStyle=1" vertex="1" parent="1">
          <mxGeometry x="330" y="1080" width="40" height="40" as="geometry" />
        </mxCell>
        <mxCell id="WZXScTK4JVefNiXDI52w-171" value="1" style="ellipse;shape=doubleEllipse;whiteSpace=wrap;html=1;aspect=fixed;fillColor=#FF0000;strokeColor=#FF3333;fontColor=#ffffff;fontFamily=Courier New;fontSize=22;fontStyle=1" vertex="1" parent="1">
          <mxGeometry x="400" y="1080" width="40" height="40" as="geometry" />
        </mxCell>
      </root>
    </mxGraphModel>
  </diagram>
</mxfile>
